<?xml version="1.0" encoding="UTF-8" standalone="no"?>
<!DOCTYPE svg PUBLIC "-//W3C//DTD SVG 1.1//EN"
 "http://www.w3.org/Graphics/SVG/1.1/DTD/svg11.dtd">
<!-- Generated by graphviz version 14.1.2 (0)
 -->
<!-- Title: ParseTree Pages: 1 -->
<svg width="411pt" height="487pt"
 viewBox="0.00 0.00 411.00 487.00" xmlns="http://www.w3.org/2000/svg" xmlns:xlink="http://www.w3.org/1999/xlink">
<g id="graph0" class="graph" transform="scale(1 1) rotate(0) translate(4 482.98)">
<title>ParseTree</title>
<polygon fill="white" stroke="none" points="-4,4 -4,-482.98 407.18,-482.98 407.18,4 -4,4"/>
<!-- n0 -->
<g id="node1" class="node">
<title>n0</title>
<polygon fill="none" stroke="cornflowerblue" points="154.8,-478.98 91.55,-478.98 91.55,-442.98 154.8,-442.98 154.8,-478.98"/>
<text xml:space="preserve" text-anchor="middle" x="123.18" y="-457.06" font-family="Iosevka Term SS09" font-size="14.00" fill="blue">program</text>
</g>
<!-- n1 -->
<g id="node2" class="node">
<title>n1</title>
<polygon fill="none" stroke="cornflowerblue" points="120.55,-406.07 43.8,-406.07 43.8,-370.07 120.55,-370.07 120.55,-406.07"/>
<text xml:space="preserve" text-anchor="middle" x="82.18" y="-384.14" font-family="Iosevka Term SS09" font-size="14.00" fill="blue">printStmt</text>
</g>
<!-- n0&#45;&gt;n1 -->
<g id="edge1" class="edge">
<title>n0&#45;&gt;n1</title>
<path fill="none" stroke="black" d="M113.25,-442.81C108.57,-434.71 102.87,-424.86 97.64,-415.81"/>
<polygon fill="black" stroke="black" points="100.8,-414.29 92.77,-407.38 94.74,-417.79 100.8,-414.29"/>
</g>
<!-- n16 -->
<g id="node17" class="node">
<title>n16</title>
<ellipse fill="none" stroke="red" cx="165.18" cy="-388.07" rx="27" ry="18.92"/>
<text xml:space="preserve" text-anchor="middle" x="165.18" y="-384.14" font-family="Iosevka Term SS09" font-size="14.00" fill="maroon">EOF</text>
</g>
<!-- n0&#45;&gt;n16 -->
<g id="edge16" class="edge">
<title>n0&#45;&gt;n16</title>
<path fill="none" stroke="black" d="M133.35,-442.81C138.14,-434.71 143.98,-424.86 149.34,-415.81"/>
<polygon fill="black" stroke="black" points="152.25,-417.76 154.33,-407.38 146.23,-414.2 152.25,-417.76"/>
</g>
<!-- n2 -->
<g id="node3" class="node">
<title>n2</title>
<ellipse fill="none" stroke="red" cx="35.18" cy="-314.24" rx="35.18" ry="18.92"/>
<text xml:space="preserve" text-anchor="middle" x="35.18" y="-310.31" font-family="Iosevka Term SS09" font-size="14.00" fill="maroon">print</text>
</g>
<!-- n1&#45;&gt;n2 -->
<g id="edge2" class="edge">
<title>n1&#45;&gt;n2</title>
<path fill="none" stroke="black" d="M70.8,-369.68C65.37,-361.38 58.76,-351.28 52.71,-342.03"/>
<polygon fill="black" stroke="black" points="55.68,-340.18 47.28,-333.73 49.83,-344.01 55.68,-340.18"/>
</g>
<!-- n3 -->
<g id="node4" class="node">
<title>n3</title>
<polygon fill="none" stroke="cornflowerblue" points="171.93,-332.24 88.43,-332.24 88.43,-296.24 171.93,-296.24 171.93,-332.24"/>
<text xml:space="preserve" text-anchor="middle" x="130.18" y="-310.31" font-family="Iosevka Term SS09" font-size="14.00" fill="blue">expression</text>
</g>
<!-- n1&#45;&gt;n3 -->
<g id="edge3" class="edge">
<title>n1&#45;&gt;n3</title>
<path fill="none" stroke="black" d="M93.8,-369.68C99.3,-361.45 106,-351.42 112.14,-342.23"/>
<polygon fill="black" stroke="black" points="115.01,-344.23 117.66,-333.97 109.19,-340.34 115.01,-344.23"/>
</g>
<!-- n4 -->
<g id="node5" class="node">
<title>n4</title>
<ellipse fill="none" stroke="red" cx="58.18" cy="-240.41" rx="27" ry="18.92"/>
<text xml:space="preserve" text-anchor="middle" x="58.18" y="-236.48" font-family="Iosevka Term SS09" font-size="14.00" fill="maroon">a</text>
</g>
<!-- n3&#45;&gt;n4 -->
<g id="edge4" class="edge">
<title>n3&#45;&gt;n4</title>
<path fill="none" stroke="black" d="M112.75,-295.85C103.26,-286.38 91.39,-274.54 81.15,-264.32"/>
<polygon fill="black" stroke="black" points="83.64,-261.86 74.09,-257.28 78.69,-266.82 83.64,-261.86"/>
</g>
<!-- n5 -->
<g id="node6" class="node">
<title>n5</title>
<ellipse fill="none" stroke="red" cx="130.18" cy="-240.41" rx="27" ry="18.92"/>
<text xml:space="preserve" text-anchor="middle" x="130.18" y="-236.48" font-family="Iosevka Term SS09" font-size="14.00" fill="maroon">**</text>
</g>
<!-- n3&#45;&gt;n5 -->
<g id="edge5" class="edge">
<title>n3&#45;&gt;n5</title>
<path fill="none" stroke="black" d="M130.18,-295.85C130.18,-288.4 130.18,-279.48 130.18,-271.04"/>
<polygon fill="black" stroke="black" points="133.68,-271.15 130.18,-261.15 126.68,-271.15 133.68,-271.15"/>
</g>
<!-- n6 -->
<g id="node7" class="node">
<title>n6</title>
<polygon fill="none" stroke="cornflowerblue" points="258.93,-258.41 175.43,-258.41 175.43,-222.41 258.93,-222.41 258.93,-258.41"/>
<text xml:space="preserve" text-anchor="middle" x="217.18" y="-236.48" font-family="Iosevka Term SS09" font-size="14.00" fill="blue">expression</text>
</g>
<!-- n3&#45;&gt;n6 -->
<g id="edge6" class="edge">
<title>n3&#45;&gt;n6</title>
<path fill="none" stroke="black" d="M151.24,-295.85C162.06,-286.91 175.43,-275.88 187.3,-266.08"/>
<polygon fill="black" stroke="black" points="189.36,-268.91 194.84,-259.85 184.9,-263.51 189.36,-268.91"/>
</g>
<!-- n7 -->
<g id="node8" class="node">
<title>n7</title>
<ellipse fill="none" stroke="red" cx="145.18" cy="-166.58" rx="27" ry="18.92"/>
<text xml:space="preserve" text-anchor="middle" x="145.18" y="-162.65" font-family="Iosevka Term SS09" font-size="14.00" fill="maroon">3</text>
</g>
<!-- n6&#45;&gt;n7 -->
<g id="edge7" class="edge">
<title>n6&#45;&gt;n7</title>
<path fill="none" stroke="black" d="M199.75,-222.02C190.26,-212.55 178.39,-200.71 168.15,-190.49"/>
<polygon fill="black" stroke="black" points="170.64,-188.03 161.09,-183.45 165.69,-192.99 170.64,-188.03"/>
</g>
<!-- n8 -->
<g id="node9" class="node">
<title>n8</title>
<ellipse fill="none" stroke="red" cx="217.18" cy="-166.58" rx="27" ry="18.92"/>
<text xml:space="preserve" text-anchor="middle" x="217.18" y="-162.65" font-family="Iosevka Term SS09" font-size="14.00" fill="maroon">**</text>
</g>
<!-- n6&#45;&gt;n8 -->
<g id="edge8" class="edge">
<title>n6&#45;&gt;n8</title>
<path fill="none" stroke="black" d="M217.18,-222.02C217.18,-214.57 217.18,-205.65 217.18,-197.21"/>
<polygon fill="black" stroke="black" points="220.68,-197.32 217.18,-187.32 213.68,-197.32 220.68,-197.32"/>
</g>
<!-- n9 -->
<g id="node10" class="node">
<title>n9</title>
<polygon fill="none" stroke="cornflowerblue" points="345.93,-184.58 262.43,-184.58 262.43,-148.58 345.93,-148.58 345.93,-184.58"/>
<text xml:space="preserve" text-anchor="middle" x="304.18" y="-162.65" font-family="Iosevka Term SS09" font-size="14.00" fill="blue">expression</text>
</g>
<!-- n6&#45;&gt;n9 -->
<g id="edge9" class="edge">
<title>n6&#45;&gt;n9</title>
<path fill="none" stroke="black" d="M238.24,-222.02C249.06,-213.08 262.43,-202.05 274.3,-192.25"/>
<polygon fill="black" stroke="black" points="276.36,-195.08 281.84,-186.02 271.9,-189.68 276.36,-195.08"/>
</g>
<!-- n10 -->
<g id="node11" class="node">
<title>n10</title>
<polygon fill="none" stroke="cornflowerblue" points="258.93,-110.75 175.43,-110.75 175.43,-74.75 258.93,-74.75 258.93,-110.75"/>
<text xml:space="preserve" text-anchor="middle" x="217.18" y="-88.82" font-family="Iosevka Term SS09" font-size="14.00" fill="blue">expression</text>
</g>
<!-- n9&#45;&gt;n10 -->
<g id="edge10" class="edge">
<title>n9&#45;&gt;n10</title>
<path fill="none" stroke="black" d="M283.12,-148.19C272.3,-139.25 258.93,-128.21 247.06,-118.42"/>
<polygon fill="black" stroke="black" points="249.45,-115.85 239.51,-112.19 245,-121.25 249.45,-115.85"/>
</g>
<!-- n14 -->
<g id="node15" class="node">
<title>n14</title>
<ellipse fill="none" stroke="red" cx="304.18" cy="-92.75" rx="27" ry="18.92"/>
<text xml:space="preserve" text-anchor="middle" x="304.18" y="-88.82" font-family="Iosevka Term SS09" font-size="14.00" fill="maroon">(</text>
</g>
<!-- n9&#45;&gt;n14 -->
<g id="edge14" class="edge">
<title>n9&#45;&gt;n14</title>
<path fill="none" stroke="black" d="M304.18,-148.19C304.18,-140.74 304.18,-131.82 304.18,-123.38"/>
<polygon fill="black" stroke="black" points="307.68,-123.49 304.18,-113.49 300.68,-123.49 307.68,-123.49"/>
</g>
<!-- n15 -->
<g id="node16" class="node">
<title>n15</title>
<ellipse fill="none" stroke="red" cx="376.18" cy="-92.75" rx="27" ry="18.92"/>
<text xml:space="preserve" text-anchor="middle" x="376.18" y="-88.82" font-family="Iosevka Term SS09" font-size="14.00" fill="maroon">)</text>
</g>
<!-- n9&#45;&gt;n15 -->
<g id="edge15" class="edge">
<title>n9&#45;&gt;n15</title>
<path fill="none" stroke="black" d="M321.61,-148.19C331.1,-138.72 342.97,-126.88 353.21,-116.66"/>
<polygon fill="black" stroke="black" points="355.66,-119.16 360.27,-109.62 350.72,-114.2 355.66,-119.16"/>
</g>
<!-- n11 -->
<g id="node12" class="node">
<title>n11</title>
<ellipse fill="none" stroke="red" cx="145.18" cy="-18.92" rx="27" ry="18.92"/>
<text xml:space="preserve" text-anchor="middle" x="145.18" y="-14.99" font-family="Iosevka Term SS09" font-size="14.00" fill="maroon">b</text>
</g>
<!-- n10&#45;&gt;n11 -->
<g id="edge11" class="edge">
<title>n10&#45;&gt;n11</title>
<path fill="none" stroke="black" d="M199.75,-74.36C190.26,-64.89 178.39,-53.05 168.15,-42.83"/>
<polygon fill="black" stroke="black" points="170.64,-40.37 161.09,-35.79 165.69,-45.33 170.64,-40.37"/>
</g>
<!-- n12 -->
<g id="node13" class="node">
<title>n12</title>
<ellipse fill="none" stroke="red" cx="217.18" cy="-18.92" rx="27" ry="18.92"/>
<text xml:space="preserve" text-anchor="middle" x="217.18" y="-14.99" font-family="Iosevka Term SS09" font-size="14.00" fill="maroon">.</text>
</g>
<!-- n10&#45;&gt;n12 -->
<g id="edge12" class="edge">
<title>n10&#45;&gt;n12</title>
<path fill="none" stroke="black" d="M217.18,-74.36C217.18,-66.91 217.18,-57.99 217.18,-49.55"/>
<polygon fill="black" stroke="black" points="220.68,-49.66 217.18,-39.66 213.68,-49.66 220.68,-49.66"/>
</g>
<!-- n13 -->
<g id="node14" class="node">
<title>n13</title>
<ellipse fill="none" stroke="red" cx="326.18" cy="-18.92" rx="63.82" ry="18.92"/>
<text xml:space="preserve" text-anchor="middle" x="326.18" y="-14.99" font-family="Iosevka Term SS09" font-size="14.00" fill="maroon">final_value</text>
</g>
<!-- n10&#45;&gt;n13 -->
<g id="edge13" class="edge">
<title>n10&#45;&gt;n13</title>
<path fill="none" stroke="black" d="M243.56,-74.36C257.97,-64.87 275.97,-53 291.5,-42.77"/>
<polygon fill="black" stroke="black" points="293.1,-45.91 299.52,-37.48 289.25,-40.06 293.1,-45.91"/>
</g>
</g>
</svg>
