<?xml version="1.0" encoding="UTF-8" standalone="no"?>
<!DOCTYPE svg PUBLIC "-//W3C//DTD SVG 1.1//EN"
 "http://www.w3.org/Graphics/SVG/1.1/DTD/svg11.dtd">
<!-- Generated by graphviz version 14.1.2 (0)
 -->
<!-- Title: ParseTree Pages: 1 -->
<svg width="215pt" height="404pt"
 viewBox="0.00 0.00 215.00 404.00" xmlns="http://www.w3.org/2000/svg" xmlns:xlink="http://www.w3.org/1999/xlink">
<g id="graph0" class="graph" transform="scale(1 1) rotate(0) translate(4 400)">
<title>ParseTree</title>
<polygon fill="white" stroke="none" points="-4,4 -4,-400 210.88,-400 210.88,4 -4,4"/>
<!-- n0 -->
<g id="node1" class="node">
<title>n0</title>
<polygon fill="none" stroke="blue" points="171.94,-396 98.19,-396 98.19,-360 171.94,-360 171.94,-396"/>
<text xml:space="preserve" text-anchor="middle" x="135.07" y="-372.95" font-family="Courier New" font-size="14.00" fill="blue">program</text>
</g>
<!-- n1 -->
<g id="node2" class="node">
<title>n1</title>
<polygon fill="none" stroke="blue" points="133.07,-324 51.07,-324 51.07,-288 133.07,-288 133.07,-324"/>
<text xml:space="preserve" text-anchor="middle" x="92.07" y="-300.95" font-family="Courier New" font-size="14.00" fill="blue">codeItem</text>
</g>
<!-- n0&#45;&gt;n1 -->
<g id="edge1" class="edge">
<title>n0&#45;&gt;n1</title>
<path fill="none" stroke="black" d="M124.44,-359.7C119.65,-351.9 113.88,-342.51 108.55,-333.83"/>
<polygon fill="black" stroke="black" points="111.58,-332.08 103.37,-325.39 105.62,-335.75 111.58,-332.08"/>
</g>
<!-- n7 -->
<g id="node8" class="node">
<title>n7</title>
<ellipse fill="none" stroke="green" cx="179.07" cy="-306" rx="27.81" ry="18"/>
<text xml:space="preserve" text-anchor="middle" x="179.07" y="-300.95" font-family="Courier New" font-size="14.00" fill="darkgreen">EOF</text>
</g>
<!-- n0&#45;&gt;n7 -->
<g id="edge7" class="edge">
<title>n0&#45;&gt;n7</title>
<path fill="none" stroke="black" d="M145.94,-359.7C151.05,-351.58 157.23,-341.74 162.87,-332.76"/>
<polygon fill="black" stroke="black" points="165.76,-334.75 168.11,-324.43 159.83,-331.03 165.76,-334.75"/>
</g>
<!-- n2 -->
<g id="node3" class="node">
<title>n2</title>
<polygon fill="none" stroke="blue" points="137.19,-252 46.94,-252 46.94,-216 137.19,-216 137.19,-252"/>
<text xml:space="preserve" text-anchor="middle" x="92.07" y="-228.95" font-family="Courier New" font-size="14.00" fill="blue">statement</text>
</g>
<!-- n1&#45;&gt;n2 -->
<g id="edge2" class="edge">
<title>n1&#45;&gt;n2</title>
<path fill="none" stroke="black" d="M92.07,-287.7C92.07,-280.41 92.07,-271.73 92.07,-263.54"/>
<polygon fill="black" stroke="black" points="95.57,-263.62 92.07,-253.62 88.57,-263.62 95.57,-263.62"/>
</g>
<!-- n3 -->
<g id="node4" class="node">
<title>n3</title>
<polygon fill="none" stroke="blue" points="137.19,-180 46.94,-180 46.94,-144 137.19,-144 137.19,-180"/>
<text xml:space="preserve" text-anchor="middle" x="92.07" y="-156.95" font-family="Courier New" font-size="14.00" fill="blue">printStmt</text>
</g>
<!-- n2&#45;&gt;n3 -->
<g id="edge3" class="edge">
<title>n2&#45;&gt;n3</title>
<path fill="none" stroke="black" d="M92.07,-215.7C92.07,-208.41 92.07,-199.73 92.07,-191.54"/>
<polygon fill="black" stroke="black" points="95.57,-191.62 92.07,-181.62 88.57,-191.62 95.57,-191.62"/>
</g>
<!-- n4 -->
<g id="node5" class="node">
<title>n4</title>
<ellipse fill="none" stroke="green" cx="39.07" cy="-90" rx="39.07" ry="18"/>
<text xml:space="preserve" text-anchor="middle" x="39.07" y="-84.95" font-family="Courier New" font-size="14.00" fill="darkgreen">print</text>
</g>
<!-- n3&#45;&gt;n4 -->
<g id="edge4" class="edge">
<title>n3&#45;&gt;n4</title>
<path fill="none" stroke="black" d="M78.97,-143.7C72.69,-135.4 65.05,-125.31 58.14,-116.19"/>
<polygon fill="black" stroke="black" points="61.03,-114.21 52.21,-108.35 55.45,-118.44 61.03,-114.21"/>
</g>
<!-- n5 -->
<g id="node6" class="node">
<title>n5</title>
<polygon fill="none" stroke="blue" points="194.32,-108 95.82,-108 95.82,-72 194.32,-72 194.32,-108"/>
<text xml:space="preserve" text-anchor="middle" x="145.07" y="-84.95" font-family="Courier New" font-size="14.00" fill="blue">expression</text>
</g>
<!-- n3&#45;&gt;n5 -->
<g id="edge5" class="edge">
<title>n3&#45;&gt;n5</title>
<path fill="none" stroke="black" d="M105.17,-143.7C111.2,-135.73 118.49,-126.1 125.18,-117.26"/>
<polygon fill="black" stroke="black" points="127.96,-119.4 131.2,-109.31 122.38,-115.17 127.96,-119.4"/>
</g>
<!-- n6 -->
<g id="node7" class="node">
<title>n6</title>
<ellipse fill="none" stroke="green" cx="145.07" cy="-18" rx="27" ry="18"/>
<text xml:space="preserve" text-anchor="middle" x="145.07" y="-12.95" font-family="Courier New" font-size="14.00" fill="darkgreen">a</text>
</g>
<!-- n5&#45;&gt;n6 -->
<g id="edge6" class="edge">
<title>n5&#45;&gt;n6</title>
<path fill="none" stroke="black" d="M145.07,-71.7C145.07,-64.41 145.07,-55.73 145.07,-47.54"/>
<polygon fill="black" stroke="black" points="148.57,-47.62 145.07,-37.62 141.57,-47.62 148.57,-47.62"/>
</g>
</g>
</svg>
