<?xml version="1.0" encoding="UTF-8" standalone="no"?>
<!DOCTYPE svg PUBLIC "-//W3C//DTD SVG 1.1//EN"
 "http://www.w3.org/Graphics/SVG/1.1/DTD/svg11.dtd">
<!-- Generated by graphviz version 14.1.2 (0)
 -->
<!-- Title: ParseTree Pages: 1 -->
<svg width="1404pt" height="413pt"
 viewBox="0.00 0.00 1404.00 413.00" xmlns="http://www.w3.org/2000/svg" xmlns:xlink="http://www.w3.org/1999/xlink">
<g id="graph0" class="graph" transform="scale(1 1) rotate(0) translate(4 409.15)">
<title>ParseTree</title>
<polygon fill="white" stroke="none" points="-4,4 -4,-409.15 1400,-409.15 1400,4 -4,4"/>
<!-- n0 -->
<g id="node1" class="node">
<title>n0</title>
<polygon fill="none" stroke="cornflowerblue" points="960.62,-405.15 897.38,-405.15 897.38,-369.15 960.62,-369.15 960.62,-405.15"/>
<text xml:space="preserve" text-anchor="middle" x="929" y="-383.23" font-family="Iosevka Term SS09" font-size="14.00" fill="blue">program</text>
</g>
<!-- n1 -->
<g id="node2" class="node">
<title>n1</title>
<polygon fill="none" stroke="cornflowerblue" points="276.25,-332.24 219.75,-332.24 219.75,-296.24 276.25,-296.24 276.25,-332.24"/>
<text xml:space="preserve" text-anchor="middle" x="248" y="-310.31" font-family="Iosevka Term SS09" font-size="14.00" fill="blue">ifStmt</text>
</g>
<!-- n0&#45;&gt;n1 -->
<g id="edge1" class="edge">
<title>n0&#45;&gt;n1</title>
<path fill="none" stroke="black" d="M897.07,-382.83C785.11,-371.17 410.51,-332.16 287.51,-319.35"/>
<polygon fill="black" stroke="black" points="288.22,-315.91 277.91,-318.35 287.49,-322.87 288.22,-315.91"/>
</g>
<!-- n11 -->
<g id="node12" class="node">
<title>n11</title>
<ellipse fill="none" stroke="black" cx="609" cy="-314.24" rx="27" ry="18"/>
</g>
<!-- n0&#45;&gt;n11 -->
<g id="edge11" class="edge">
<title>n0&#45;&gt;n11</title>
<path fill="none" stroke="black" d="M897.18,-383.12C843.89,-377.41 733.7,-362.85 645,-333.15 643.18,-332.54 641.33,-331.86 639.49,-331.12"/>
<polygon fill="black" stroke="black" points="641.08,-327.99 630.52,-327.1 638.22,-334.38 641.08,-327.99"/>
</g>
<!-- n12 -->
<g id="node13" class="node">
<title>n12</title>
<polygon fill="none" stroke="cornflowerblue" points="710.25,-332.24 653.75,-332.24 653.75,-296.24 710.25,-296.24 710.25,-332.24"/>
<text xml:space="preserve" text-anchor="middle" x="682" y="-310.31" font-family="Iosevka Term SS09" font-size="14.00" fill="blue">ifStmt</text>
</g>
<!-- n0&#45;&gt;n12 -->
<g id="edge12" class="edge">
<title>n0&#45;&gt;n12</title>
<path fill="none" stroke="black" d="M897.09,-380.21C857.52,-372.39 788,-357.18 721.14,-333.57"/>
<polygon fill="black" stroke="black" points="722.45,-330.33 711.86,-330.23 720.08,-336.91 722.45,-330.33"/>
</g>
<!-- n26 -->
<g id="node27" class="node">
<title>n26</title>
<ellipse fill="none" stroke="black" cx="755" cy="-314.24" rx="27" ry="18"/>
</g>
<!-- n0&#45;&gt;n26 -->
<g id="edge26" class="edge">
<title>n0&#45;&gt;n26</title>
<path fill="none" stroke="black" d="M897.14,-374.89C868.94,-364.7 826.83,-348.9 791,-333.15 789.29,-332.4 787.54,-331.61 785.78,-330.79"/>
<polygon fill="black" stroke="black" points="787.68,-327.82 777.15,-326.65 784.65,-334.13 787.68,-327.82"/>
</g>
<!-- n27 -->
<g id="node28" class="node">
<title>n27</title>
<polygon fill="none" stroke="cornflowerblue" points="883.75,-332.24 800.25,-332.24 800.25,-296.24 883.75,-296.24 883.75,-332.24"/>
<text xml:space="preserve" text-anchor="middle" x="842" y="-310.31" font-family="Iosevka Term SS09" font-size="14.00" fill="blue">expression</text>
</g>
<!-- n0&#45;&gt;n27 -->
<g id="edge27" class="edge">
<title>n0&#45;&gt;n27</title>
<path fill="none" stroke="black" d="M907.94,-368.98C897.12,-360.16 883.75,-349.27 871.88,-339.59"/>
<polygon fill="black" stroke="black" points="874.3,-337.05 864.34,-333.45 869.88,-342.48 874.3,-337.05"/>
</g>
<!-- n31 -->
<g id="node32" class="node">
<title>n31</title>
<ellipse fill="none" stroke="black" cx="929" cy="-314.24" rx="27" ry="18.92"/>
<text xml:space="preserve" text-anchor="middle" x="929" y="-310.31" font-family="Iosevka Term SS09" font-size="14.00">\n</text>
</g>
<!-- n0&#45;&gt;n31 -->
<g id="edge31" class="edge">
<title>n0&#45;&gt;n31</title>
<path fill="none" stroke="black" d="M929,-368.98C929,-361.77 929,-353.16 929,-344.97"/>
<polygon fill="black" stroke="black" points="932.5,-345 929,-335 925.5,-345 932.5,-345"/>
</g>
<!-- n32 -->
<g id="node33" class="node">
<title>n32</title>
<polygon fill="none" stroke="cornflowerblue" points="1057.75,-332.24 974.25,-332.24 974.25,-296.24 1057.75,-296.24 1057.75,-332.24"/>
<text xml:space="preserve" text-anchor="middle" x="1016" y="-310.31" font-family="Iosevka Term SS09" font-size="14.00" fill="blue">expression</text>
</g>
<!-- n0&#45;&gt;n32 -->
<g id="edge32" class="edge">
<title>n0&#45;&gt;n32</title>
<path fill="none" stroke="black" d="M950.06,-368.98C960.88,-360.16 974.25,-349.27 986.12,-339.59"/>
<polygon fill="black" stroke="black" points="988.12,-342.48 993.66,-333.45 983.7,-337.05 988.12,-342.48"/>
</g>
<!-- n36 -->
<g id="node37" class="node">
<title>n36</title>
<ellipse fill="none" stroke="black" cx="1103" cy="-314.24" rx="27" ry="18.92"/>
<text xml:space="preserve" text-anchor="middle" x="1103" y="-310.31" font-family="Iosevka Term SS09" font-size="14.00">\n</text>
</g>
<!-- n0&#45;&gt;n36 -->
<g id="edge36" class="edge">
<title>n0&#45;&gt;n36</title>
<path fill="none" stroke="black" d="M960.86,-374.89C989.06,-364.7 1031.17,-348.9 1067,-333.15 1068.52,-332.48 1070.06,-331.79 1071.62,-331.07"/>
<polygon fill="black" stroke="black" points="1072.96,-334.31 1080.47,-326.84 1069.94,-327.99 1072.96,-334.31"/>
</g>
<!-- n37 -->
<g id="node38" class="node">
<title>n37</title>
<polygon fill="none" stroke="cornflowerblue" points="1224.38,-332.24 1147.62,-332.24 1147.62,-296.24 1224.38,-296.24 1224.38,-332.24"/>
<text xml:space="preserve" text-anchor="middle" x="1186" y="-310.31" font-family="Iosevka Term SS09" font-size="14.00" fill="blue">printStmt</text>
</g>
<!-- n0&#45;&gt;n37 -->
<g id="edge37" class="edge">
<title>n0&#45;&gt;n37</title>
<path fill="none" stroke="black" d="M960.99,-379.3C1000.34,-370.61 1069.32,-354.53 1136.4,-333.81"/>
<polygon fill="black" stroke="black" points="1137.2,-337.23 1145.7,-330.9 1135.11,-330.55 1137.2,-337.23"/>
</g>
<!-- n43 -->
<g id="node44" class="node">
<title>n43</title>
<ellipse fill="none" stroke="black" cx="1269" cy="-314.24" rx="27" ry="18.92"/>
<text xml:space="preserve" text-anchor="middle" x="1269" y="-310.31" font-family="Iosevka Term SS09" font-size="14.00">\n</text>
</g>
<!-- n0&#45;&gt;n43 -->
<g id="edge43" class="edge">
<title>n0&#45;&gt;n43</title>
<path fill="none" stroke="black" d="M960.8,-383.65C1016.95,-378.57 1136.8,-364.73 1233,-333.15 1234.78,-332.57 1236.58,-331.91 1238.38,-331.2"/>
<polygon fill="black" stroke="black" points="1239.39,-334.58 1247.11,-327.33 1236.55,-328.18 1239.39,-334.58"/>
</g>
<!-- n44 -->
<g id="node45" class="node">
<title>n44</title>
<ellipse fill="none" stroke="red" cx="1341" cy="-314.24" rx="27" ry="18.92"/>
<text xml:space="preserve" text-anchor="middle" x="1341" y="-310.31" font-family="Iosevka Term SS09" font-size="14.00" fill="maroon">EOF</text>
</g>
<!-- n0&#45;&gt;n44 -->
<g id="edge44" class="edge">
<title>n0&#45;&gt;n44</title>
<path fill="none" stroke="black" d="M960.94,-385.09C1026.75,-382.17 1181.6,-371.45 1305,-333.15 1306.79,-332.6 1308.6,-331.96 1310.4,-331.27"/>
<polygon fill="black" stroke="black" points="1311.39,-334.66 1319.15,-327.44 1308.58,-328.24 1311.39,-334.66"/>
</g>
<!-- n2 -->
<g id="node3" class="node">
<title>n2</title>
<ellipse fill="none" stroke="red" cx="135" cy="-240.41" rx="27" ry="18.92"/>
<text xml:space="preserve" text-anchor="middle" x="135" y="-236.48" font-family="Iosevka Term SS09" font-size="14.00" fill="maroon">if</text>
</g>
<!-- n1&#45;&gt;n2 -->
<g id="edge2" class="edge">
<title>n1&#45;&gt;n2</title>
<path fill="none" stroke="black" d="M220.65,-295.85C203.61,-285.02 181.71,-271.1 164.31,-260.04"/>
<polygon fill="black" stroke="black" points="166.26,-257.13 155.94,-254.72 162.51,-263.04 166.26,-257.13"/>
</g>
<!-- n3 -->
<g id="node4" class="node">
<title>n3</title>
<ellipse fill="none" stroke="red" cx="210" cy="-240.41" rx="30.41" ry="18.92"/>
<text xml:space="preserve" text-anchor="middle" x="210" y="-236.48" font-family="Iosevka Term SS09" font-size="14.00" fill="maroon">true</text>
</g>
<!-- n1&#45;&gt;n3 -->
<g id="edge3" class="edge">
<title>n1&#45;&gt;n3</title>
<path fill="none" stroke="black" d="M238.8,-295.85C234.54,-287.79 229.37,-278.02 224.59,-268.99"/>
<polygon fill="black" stroke="black" points="227.72,-267.42 219.95,-260.22 221.54,-270.7 227.72,-267.42"/>
</g>
<!-- n4 -->
<g id="node5" class="node">
<title>n4</title>
<polygon fill="none" stroke="cornflowerblue" points="312,-258.41 258,-258.41 258,-222.41 312,-222.41 312,-258.41"/>
<text xml:space="preserve" text-anchor="middle" x="285" y="-236.48" font-family="Iosevka Term SS09" font-size="14.00" fill="blue">block</text>
</g>
<!-- n1&#45;&gt;n4 -->
<g id="edge4" class="edge">
<title>n1&#45;&gt;n4</title>
<path fill="none" stroke="black" d="M256.96,-295.85C261.11,-287.79 266.14,-278.02 270.79,-268.99"/>
<polygon fill="black" stroke="black" points="273.84,-270.72 275.3,-260.23 267.61,-267.52 273.84,-270.72"/>
</g>
<!-- n5 -->
<g id="node6" class="node">
<title>n5</title>
<ellipse fill="none" stroke="black" cx="27" cy="-166.58" rx="27" ry="18.92"/>
<text xml:space="preserve" text-anchor="middle" x="27" y="-162.65" font-family="Iosevka Term SS09" font-size="14.00">\n</text>
</g>
<!-- n4&#45;&gt;n5 -->
<g id="edge5" class="edge">
<title>n4&#45;&gt;n5</title>
<path fill="none" stroke="black" d="M257.81,-224.92C254.88,-223.65 251.91,-222.48 249,-221.49 169.25,-194.49 142.75,-212.49 63,-185.49 61.43,-184.96 59.84,-184.37 58.25,-183.74"/>
<polygon fill="black" stroke="black" points="59.86,-180.63 49.3,-179.78 57.02,-187.03 59.86,-180.63"/>
</g>
<!-- n6 -->
<g id="node7" class="node">
<title>n6</title>
<ellipse fill="none" stroke="red" cx="150" cy="-166.58" rx="78.14" ry="18.92"/>
<text xml:space="preserve" text-anchor="middle" x="150" y="-162.65" font-family="Iosevka Term SS09" font-size="14.00" fill="maroon">#&#45;beforecode&#45;#</text>
</g>
<!-- n4&#45;&gt;n6 -->
<g id="edge6" class="edge">
<title>n4&#45;&gt;n6</title>
<path fill="none" stroke="black" d="M257.68,-224.87C238.74,-214.79 213.17,-201.19 191.7,-189.77"/>
<polygon fill="black" stroke="black" points="193.35,-186.68 182.88,-185.07 190.06,-192.86 193.35,-186.68"/>
</g>
<!-- n7 -->
<g id="node8" class="node">
<title>n7</title>
<polygon fill="none" stroke="cornflowerblue" points="323.38,-184.58 246.62,-184.58 246.62,-148.58 323.38,-148.58 323.38,-184.58"/>
<text xml:space="preserve" text-anchor="middle" x="285" y="-162.65" font-family="Iosevka Term SS09" font-size="14.00" fill="blue">blockBody</text>
</g>
<!-- n4&#45;&gt;n7 -->
<g id="edge7" class="edge">
<title>n4&#45;&gt;n7</title>
<path fill="none" stroke="black" d="M285,-222.02C285,-214.31 285,-205.04 285,-196.34"/>
<polygon fill="black" stroke="black" points="288.5,-196.57 285,-186.57 281.5,-196.57 288.5,-196.57"/>
</g>
<!-- n10 -->
<g id="node11" class="node">
<title>n10</title>
<ellipse fill="none" stroke="black" cx="368" cy="-166.58" rx="27" ry="18.92"/>
<text xml:space="preserve" text-anchor="middle" x="368" y="-162.65" font-family="Iosevka Term SS09" font-size="14.00">\n</text>
</g>
<!-- n4&#45;&gt;n10 -->
<g id="edge10" class="edge">
<title>n4&#45;&gt;n10</title>
<path fill="none" stroke="black" d="M305.09,-222.02C316.52,-212.13 330.93,-199.66 343.07,-189.15"/>
<polygon fill="black" stroke="black" points="345.02,-192.09 350.3,-182.9 340.44,-186.79 345.02,-192.09"/>
</g>
<!-- n8 -->
<g id="node9" class="node">
<title>n8</title>
<ellipse fill="none" stroke="red" cx="247" cy="-92.75" rx="30.41" ry="18.92"/>
<text xml:space="preserve" text-anchor="middle" x="247" y="-88.82" font-family="Iosevka Term SS09" font-size="14.00" fill="maroon">pass</text>
</g>
<!-- n7&#45;&gt;n8 -->
<g id="edge8" class="edge">
<title>n7&#45;&gt;n8</title>
<path fill="none" stroke="black" d="M275.8,-148.19C271.54,-140.13 266.37,-130.36 261.59,-121.33"/>
<polygon fill="black" stroke="black" points="264.72,-119.76 256.95,-112.56 258.54,-123.04 264.72,-119.76"/>
</g>
<!-- n9 -->
<g id="node10" class="node">
<title>n9</title>
<ellipse fill="none" stroke="black" cx="322" cy="-92.75" rx="27" ry="18.92"/>
<text xml:space="preserve" text-anchor="middle" x="322" y="-88.82" font-family="Iosevka Term SS09" font-size="14.00">\n</text>
</g>
<!-- n7&#45;&gt;n9 -->
<g id="edge9" class="edge">
<title>n7&#45;&gt;n9</title>
<path fill="none" stroke="black" d="M293.96,-148.19C298.14,-140.07 303.21,-130.21 307.89,-121.13"/>
<polygon fill="black" stroke="black" points="310.96,-122.81 312.43,-112.32 304.74,-119.61 310.96,-122.81"/>
</g>
<!-- n13 -->
<g id="node14" class="node">
<title>n13</title>
<ellipse fill="none" stroke="red" cx="540" cy="-240.41" rx="27" ry="18.92"/>
<text xml:space="preserve" text-anchor="middle" x="540" y="-236.48" font-family="Iosevka Term SS09" font-size="14.00" fill="maroon">if</text>
</g>
<!-- n12&#45;&gt;n13 -->
<g id="edge13" class="edge">
<title>n12&#45;&gt;n13</title>
<path fill="none" stroke="black" d="M653.26,-298.7C629.54,-286.7 595.93,-269.7 571.49,-257.33"/>
<polygon fill="black" stroke="black" points="573.15,-254.25 562.65,-252.86 569.99,-260.5 573.15,-254.25"/>
</g>
<!-- n14 -->
<g id="node15" class="node">
<title>n14</title>
<ellipse fill="none" stroke="red" cx="615" cy="-240.41" rx="30.41" ry="18.92"/>
<text xml:space="preserve" text-anchor="middle" x="615" y="-236.48" font-family="Iosevka Term SS09" font-size="14.00" fill="maroon">true</text>
</g>
<!-- n12&#45;&gt;n14 -->
<g id="edge14" class="edge">
<title>n12&#45;&gt;n14</title>
<path fill="none" stroke="black" d="M665.78,-295.85C657.27,-286.73 646.72,-275.41 637.44,-265.46"/>
<polygon fill="black" stroke="black" points="640.11,-263.2 630.73,-258.27 634.99,-267.97 640.11,-263.2"/>
</g>
<!-- n15 -->
<g id="node16" class="node">
<title>n15</title>
<polygon fill="none" stroke="cornflowerblue" points="717,-258.41 663,-258.41 663,-222.41 717,-222.41 717,-258.41"/>
<text xml:space="preserve" text-anchor="middle" x="690" y="-236.48" font-family="Iosevka Term SS09" font-size="14.00" fill="blue">block</text>
</g>
<!-- n12&#45;&gt;n15 -->
<g id="edge15" class="edge">
<title>n12&#45;&gt;n15</title>
<path fill="none" stroke="black" d="M683.94,-295.85C684.79,-288.14 685.83,-278.87 686.8,-270.17"/>
<polygon fill="black" stroke="black" points="690.26,-270.71 687.89,-260.39 683.3,-269.94 690.26,-270.71"/>
</g>
<!-- n16 -->
<g id="node17" class="node">
<title>n16</title>
<ellipse fill="none" stroke="red" cx="529" cy="-166.58" rx="116.32" ry="18.92"/>
<text xml:space="preserve" text-anchor="middle" x="529" y="-162.65" font-family="Iosevka Term SS09" font-size="14.00" fill="maroon">#&#45;emitsanewlinetoo\n&#45;#</text>
</g>
<!-- n15&#45;&gt;n16 -->
<g id="edge16" class="edge">
<title>n15&#45;&gt;n16</title>
<path fill="none" stroke="black" d="M662.56,-225.56C659.68,-224.16 656.79,-222.78 654,-221.49 630.03,-210.37 603.16,-198.68 580.49,-189.04"/>
<polygon fill="black" stroke="black" points="582.03,-185.89 571.46,-185.21 579.3,-192.34 582.03,-185.89"/>
</g>
<!-- n17 -->
<g id="node18" class="node">
<title>n17</title>
<ellipse fill="none" stroke="black" cx="690" cy="-166.58" rx="27" ry="18"/>
</g>
<!-- n15&#45;&gt;n17 -->
<g id="edge17" class="edge">
<title>n15&#45;&gt;n17</title>
<path fill="none" stroke="black" d="M690,-222.02C690,-214.31 690,-205.04 690,-196.34"/>
<polygon fill="black" stroke="black" points="693.5,-196.57 690,-186.57 686.5,-196.57 693.5,-196.57"/>
</g>
<!-- n18 -->
<g id="node19" class="node">
<title>n18</title>
<polygon fill="none" stroke="cornflowerblue" points="811.38,-184.58 734.62,-184.58 734.62,-148.58 811.38,-148.58 811.38,-184.58"/>
<text xml:space="preserve" text-anchor="middle" x="773" y="-162.65" font-family="Iosevka Term SS09" font-size="14.00" fill="blue">blockBody</text>
</g>
<!-- n15&#45;&gt;n18 -->
<g id="edge18" class="edge">
<title>n15&#45;&gt;n18</title>
<path fill="none" stroke="black" d="M710.09,-222.02C720.31,-213.17 732.92,-202.26 744.16,-192.54"/>
<polygon fill="black" stroke="black" points="746.39,-195.23 751.66,-186.04 741.81,-189.94 746.39,-195.23"/>
</g>
<!-- n25 -->
<g id="node26" class="node">
<title>n25</title>
<ellipse fill="none" stroke="black" cx="856" cy="-166.58" rx="27" ry="18.92"/>
<text xml:space="preserve" text-anchor="middle" x="856" y="-162.65" font-family="Iosevka Term SS09" font-size="14.00">\n</text>
</g>
<!-- n15&#45;&gt;n25 -->
<g id="edge25" class="edge">
<title>n15&#45;&gt;n25</title>
<path fill="none" stroke="black" d="M717.39,-225.44C720.28,-224.07 723.19,-222.73 726,-221.49 766.96,-203.5 779.04,-203.48 820,-185.49 821.52,-184.82 823.06,-184.13 824.62,-183.41"/>
<polygon fill="black" stroke="black" points="825.96,-186.65 833.47,-179.18 822.94,-180.33 825.96,-186.65"/>
</g>
<!-- n19 -->
<g id="node20" class="node">
<title>n19</title>
<ellipse fill="none" stroke="red" cx="656" cy="-92.75" rx="30.41" ry="18.92"/>
<text xml:space="preserve" text-anchor="middle" x="656" y="-88.82" font-family="Iosevka Term SS09" font-size="14.00" fill="maroon">pass</text>
</g>
<!-- n18&#45;&gt;n19 -->
<g id="edge19" class="edge">
<title>n18&#45;&gt;n19</title>
<path fill="none" stroke="black" d="M744.68,-148.19C727.18,-137.45 704.73,-123.66 686.8,-112.65"/>
<polygon fill="black" stroke="black" points="688.74,-109.74 678.38,-107.49 685.08,-115.7 688.74,-109.74"/>
</g>
<!-- n20 -->
<g id="node21" class="node">
<title>n20</title>
<ellipse fill="none" stroke="black" cx="731" cy="-92.75" rx="27" ry="18.92"/>
<text xml:space="preserve" text-anchor="middle" x="731" y="-88.82" font-family="Iosevka Term SS09" font-size="14.00">\n</text>
</g>
<!-- n18&#45;&gt;n20 -->
<g id="edge20" class="edge">
<title>n18&#45;&gt;n20</title>
<path fill="none" stroke="black" d="M762.83,-148.19C757.91,-139.77 751.9,-129.49 746.43,-120.13"/>
<polygon fill="black" stroke="black" points="749.62,-118.65 741.55,-111.79 743.57,-122.18 749.62,-118.65"/>
</g>
<!-- n21 -->
<g id="node22" class="node">
<title>n21</title>
<polygon fill="none" stroke="cornflowerblue" points="852.38,-110.75 775.62,-110.75 775.62,-74.75 852.38,-74.75 852.38,-110.75"/>
<text xml:space="preserve" text-anchor="middle" x="814" y="-88.82" font-family="Iosevka Term SS09" font-size="14.00" fill="blue">printStmt</text>
</g>
<!-- n18&#45;&gt;n21 -->
<g id="edge21" class="edge">
<title>n18&#45;&gt;n21</title>
<path fill="none" stroke="black" d="M782.92,-148.19C787.57,-140.04 793.22,-130.15 798.42,-121.04"/>
<polygon fill="black" stroke="black" points="801.36,-122.96 803.27,-112.54 795.28,-119.49 801.36,-122.96"/>
</g>
<!-- n24 -->
<g id="node25" class="node">
<title>n24</title>
<ellipse fill="none" stroke="black" cx="897" cy="-92.75" rx="27" ry="18.92"/>
<text xml:space="preserve" text-anchor="middle" x="897" y="-88.82" font-family="Iosevka Term SS09" font-size="14.00">\n</text>
</g>
<!-- n18&#45;&gt;n24 -->
<g id="edge24" class="edge">
<title>n18&#45;&gt;n24</title>
<path fill="none" stroke="black" d="M803.02,-148.19C822.34,-137 847.36,-122.5 866.73,-111.28"/>
<polygon fill="black" stroke="black" points="868.35,-114.38 875.25,-106.34 864.85,-108.33 868.35,-114.38"/>
</g>
<!-- n22 -->
<g id="node23" class="node">
<title>n22</title>
<ellipse fill="none" stroke="red" cx="741" cy="-18.92" rx="35.18" ry="18.92"/>
<text xml:space="preserve" text-anchor="middle" x="741" y="-14.99" font-family="Iosevka Term SS09" font-size="14.00" fill="maroon">print</text>
</g>
<!-- n21&#45;&gt;n22 -->
<g id="edge22" class="edge">
<title>n21&#45;&gt;n22</title>
<path fill="none" stroke="black" d="M796.33,-74.36C786.97,-65.14 775.33,-53.69 765.14,-43.67"/>
<polygon fill="black" stroke="black" points="767.68,-41.25 758.09,-36.73 762.77,-46.24 767.68,-41.25"/>
</g>
<!-- n23 -->
<g id="node24" class="node">
<title>n23</title>
<ellipse fill="none" stroke="red" cx="887" cy="-18.92" rx="92.45" ry="18.92"/>
<text xml:space="preserve" text-anchor="middle" x="887" y="-14.99" font-family="Iosevka Term SS09" font-size="14.00" fill="maroon">&quot;sameindentation&quot;</text>
</g>
<!-- n21&#45;&gt;n23 -->
<g id="edge23" class="edge">
<title>n21&#45;&gt;n23</title>
<path fill="none" stroke="black" d="M831.67,-74.36C840.35,-65.82 850.99,-55.35 860.61,-45.88"/>
<polygon fill="black" stroke="black" points="862.98,-48.46 867.65,-38.95 858.07,-43.47 862.98,-48.46"/>
</g>
<!-- n28 -->
<g id="node29" class="node">
<title>n28</title>
<ellipse fill="none" stroke="red" cx="762" cy="-240.41" rx="27" ry="18.92"/>
<text xml:space="preserve" text-anchor="middle" x="762" y="-236.48" font-family="Iosevka Term SS09" font-size="14.00" fill="maroon">a</text>
</g>
<!-- n27&#45;&gt;n28 -->
<g id="edge28" class="edge">
<title>n27&#45;&gt;n28</title>
<path fill="none" stroke="black" d="M822.63,-295.85C811.8,-286.12 798.19,-273.9 786.6,-263.5"/>
<polygon fill="black" stroke="black" points="789.13,-261.06 779.35,-256.98 784.45,-266.27 789.13,-261.06"/>
</g>
<!-- n29 -->
<g id="node30" class="node">
<title>n29</title>
<ellipse fill="none" stroke="red" cx="834" cy="-240.41" rx="27" ry="18.92"/>
<text xml:space="preserve" text-anchor="middle" x="834" y="-236.48" font-family="Iosevka Term SS09" font-size="14.00" fill="maroon">+</text>
</g>
<!-- n27&#45;&gt;n29 -->
<g id="edge29" class="edge">
<title>n27&#45;&gt;n29</title>
<path fill="none" stroke="black" d="M840.06,-295.85C839.23,-288.4 838.24,-279.48 837.3,-271.04"/>
<polygon fill="black" stroke="black" points="840.78,-270.69 836.2,-261.14 833.83,-271.47 840.78,-270.69"/>
</g>
<!-- n30 -->
<g id="node31" class="node">
<title>n30</title>
<ellipse fill="none" stroke="red" cx="906" cy="-240.41" rx="27" ry="18.92"/>
<text xml:space="preserve" text-anchor="middle" x="906" y="-236.48" font-family="Iosevka Term SS09" font-size="14.00" fill="maroon">b</text>
</g>
<!-- n27&#45;&gt;n30 -->
<g id="edge30" class="edge">
<title>n27&#45;&gt;n30</title>
<path fill="none" stroke="black" d="M857.49,-295.85C865.73,-286.6 875.98,-275.09 884.94,-265.04"/>
<polygon fill="black" stroke="black" points="887.34,-267.61 891.38,-257.81 882.12,-262.95 887.34,-267.61"/>
</g>
<!-- n33 -->
<g id="node34" class="node">
<title>n33</title>
<ellipse fill="none" stroke="red" cx="978" cy="-240.41" rx="27" ry="18.92"/>
<text xml:space="preserve" text-anchor="middle" x="978" y="-236.48" font-family="Iosevka Term SS09" font-size="14.00" fill="maroon">a</text>
</g>
<!-- n32&#45;&gt;n33 -->
<g id="edge33" class="edge">
<title>n32&#45;&gt;n33</title>
<path fill="none" stroke="black" d="M1006.8,-295.85C1002.51,-287.73 997.29,-277.87 992.49,-268.79"/>
<polygon fill="black" stroke="black" points="995.59,-267.17 987.82,-259.97 989.4,-270.45 995.59,-267.17"/>
</g>
<!-- n34 -->
<g id="node35" class="node">
<title>n34</title>
<ellipse fill="none" stroke="red" cx="1050" cy="-240.41" rx="27" ry="18.92"/>
<text xml:space="preserve" text-anchor="middle" x="1050" y="-236.48" font-family="Iosevka Term SS09" font-size="14.00" fill="maroon">+</text>
</g>
<!-- n32&#45;&gt;n34 -->
<g id="edge34" class="edge">
<title>n32&#45;&gt;n34</title>
<path fill="none" stroke="black" d="M1024.23,-295.85C1028,-287.88 1032.57,-278.23 1036.8,-269.29"/>
<polygon fill="black" stroke="black" points="1039.97,-270.79 1041.08,-260.25 1033.64,-267.79 1039.97,-270.79"/>
</g>
<!-- n35 -->
<g id="node36" class="node">
<title>n35</title>
<ellipse fill="none" stroke="red" cx="1122" cy="-240.41" rx="27" ry="18.92"/>
<text xml:space="preserve" text-anchor="middle" x="1122" y="-236.48" font-family="Iosevka Term SS09" font-size="14.00" fill="maroon">b</text>
</g>
<!-- n32&#45;&gt;n35 -->
<g id="edge35" class="edge">
<title>n32&#45;&gt;n35</title>
<path fill="none" stroke="black" d="M1041.66,-295.85C1057.29,-285.26 1077.28,-271.71 1093.42,-260.78"/>
<polygon fill="black" stroke="black" points="1095.32,-263.71 1101.64,-255.21 1091.39,-257.92 1095.32,-263.71"/>
</g>
<!-- n38 -->
<g id="node39" class="node">
<title>n38</title>
<ellipse fill="none" stroke="red" cx="1202" cy="-240.41" rx="35.18" ry="18.92"/>
<text xml:space="preserve" text-anchor="middle" x="1202" y="-236.48" font-family="Iosevka Term SS09" font-size="14.00" fill="maroon">print</text>
</g>
<!-- n37&#45;&gt;n38 -->
<g id="edge38" class="edge">
<title>n37&#45;&gt;n38</title>
<path fill="none" stroke="black" d="M1189.87,-295.85C1191.55,-288.31 1193.56,-279.28 1195.46,-270.75"/>
<polygon fill="black" stroke="black" points="1198.85,-271.64 1197.61,-261.11 1192.02,-270.11 1198.85,-271.64"/>
</g>
<!-- n39 -->
<g id="node40" class="node">
<title>n39</title>
<polygon fill="none" stroke="cornflowerblue" points="1338.75,-258.41 1255.25,-258.41 1255.25,-222.41 1338.75,-222.41 1338.75,-258.41"/>
<text xml:space="preserve" text-anchor="middle" x="1297" y="-236.48" font-family="Iosevka Term SS09" font-size="14.00" fill="blue">expression</text>
</g>
<!-- n37&#45;&gt;n39 -->
<g id="edge39" class="edge">
<title>n37&#45;&gt;n39</title>
<path fill="none" stroke="black" d="M1212.87,-295.85C1227.22,-286.56 1245.08,-275.01 1260.65,-264.93"/>
<polygon fill="black" stroke="black" points="1262.23,-268.08 1268.72,-259.7 1258.43,-262.2 1262.23,-268.08"/>
</g>
<!-- n40 -->
<g id="node41" class="node">
<title>n40</title>
<ellipse fill="none" stroke="red" cx="1225" cy="-166.58" rx="27" ry="18.92"/>
<text xml:space="preserve" text-anchor="middle" x="1225" y="-162.65" font-family="Iosevka Term SS09" font-size="14.00" fill="maroon">30</text>
</g>
<!-- n39&#45;&gt;n40 -->
<g id="edge40" class="edge">
<title>n39&#45;&gt;n40</title>
<path fill="none" stroke="black" d="M1279.57,-222.02C1270.08,-212.55 1258.21,-200.71 1247.97,-190.49"/>
<polygon fill="black" stroke="black" points="1250.46,-188.03 1240.91,-183.45 1245.52,-192.99 1250.46,-188.03"/>
</g>
<!-- n41 -->
<g id="node42" class="node">
<title>n41</title>
<ellipse fill="none" stroke="red" cx="1297" cy="-166.58" rx="27" ry="18.92"/>
<text xml:space="preserve" text-anchor="middle" x="1297" y="-162.65" font-family="Iosevka Term SS09" font-size="14.00" fill="maroon">+</text>
</g>
<!-- n39&#45;&gt;n41 -->
<g id="edge41" class="edge">
<title>n39&#45;&gt;n41</title>
<path fill="none" stroke="black" d="M1297,-222.02C1297,-214.57 1297,-205.65 1297,-197.21"/>
<polygon fill="black" stroke="black" points="1300.5,-197.32 1297,-187.32 1293.5,-197.32 1300.5,-197.32"/>
</g>
<!-- n42 -->
<g id="node43" class="node">
<title>n42</title>
<ellipse fill="none" stroke="red" cx="1369" cy="-166.58" rx="27" ry="18.92"/>
<text xml:space="preserve" text-anchor="middle" x="1369" y="-162.65" font-family="Iosevka Term SS09" font-size="14.00" fill="maroon">300</text>
</g>
<!-- n39&#45;&gt;n42 -->
<g id="edge42" class="edge">
<title>n39&#45;&gt;n42</title>
<path fill="none" stroke="black" d="M1314.43,-222.02C1323.92,-212.55 1335.79,-200.71 1346.03,-190.49"/>
<polygon fill="black" stroke="black" points="1348.48,-192.99 1353.09,-183.45 1343.54,-188.03 1348.48,-192.99"/>
</g>
</g>
</svg>
