<?xml version="1.0" encoding="UTF-8" standalone="no"?>
<!DOCTYPE svg PUBLIC "-//W3C//DTD SVG 1.1//EN"
 "http://www.w3.org/Graphics/SVG/1.1/DTD/svg11.dtd">
<!-- Generated by graphviz version 14.1.2 (0)
 -->
<!-- Title: Expr Pages: 1 -->
<svg width="398pt" height="404pt"
 viewBox="0.00 0.00 398.00 404.00" xmlns="http://www.w3.org/2000/svg" xmlns:xlink="http://www.w3.org/1999/xlink">
<g id="graph0" class="graph" transform="scale(1 1) rotate(0) translate(4 400)">
<title>Expr</title>
<polygon fill="white" stroke="none" points="-4,4 -4,-400 394,-400 394,4 -4,4"/>
<!-- n0 -->
<g id="node1" class="node">
<title>n0</title>
<polygon fill="none" stroke="cornflowerblue" points="359.38,-396 282.62,-396 282.62,-360 359.38,-360 359.38,-396"/>
<text xml:space="preserve" text-anchor="middle" x="321" y="-374.07" font-family="Iosevka Term SS09" font-size="14.00" fill="blue">binary or</text>
</g>
<!-- n1 -->
<g id="node2" class="node">
<title>n1</title>
<polygon fill="none" stroke="cornflowerblue" points="318.38,-324 241.62,-324 241.62,-288 318.38,-288 318.38,-324"/>
<text xml:space="preserve" text-anchor="middle" x="280" y="-302.07" font-family="Iosevka Term SS09" font-size="14.00" fill="blue">binary or</text>
</g>
<!-- n0&#45;&gt;n1 -->
<g id="edge1" class="edge">
<title>n0&#45;&gt;n1</title>
<path fill="none" stroke="black" d="M310.87,-359.7C306.3,-351.9 300.8,-342.51 295.71,-333.83"/>
<polygon fill="black" stroke="black" points="298.86,-332.27 290.78,-325.41 292.82,-335.81 298.86,-332.27"/>
</g>
<!-- n14 -->
<g id="node15" class="node">
<title>n14</title>
<polygon fill="none" stroke="cornflowerblue" points="390,-324 336,-324 336,-288 390,-288 390,-324"/>
<text xml:space="preserve" text-anchor="middle" x="363" y="-302.07" font-family="Iosevka Term SS09" font-size="14.00" fill="blue">false</text>
</g>
<!-- n0&#45;&gt;n14 -->
<g id="edge14" class="edge">
<title>n0&#45;&gt;n14</title>
<path fill="none" stroke="black" d="M331.38,-359.7C336.06,-351.9 341.69,-342.51 346.9,-333.83"/>
<polygon fill="black" stroke="black" points="349.81,-335.78 351.96,-325.4 343.81,-332.18 349.81,-335.78"/>
</g>
<!-- n2 -->
<g id="node3" class="node">
<title>n2</title>
<polygon fill="none" stroke="cornflowerblue" points="277.38,-252 200.62,-252 200.62,-216 277.38,-216 277.38,-252"/>
<text xml:space="preserve" text-anchor="middle" x="239" y="-230.07" font-family="Iosevka Term SS09" font-size="14.00" fill="blue">binary or</text>
</g>
<!-- n1&#45;&gt;n2 -->
<g id="edge2" class="edge">
<title>n1&#45;&gt;n2</title>
<path fill="none" stroke="black" d="M269.87,-287.7C265.3,-279.9 259.8,-270.51 254.71,-261.83"/>
<polygon fill="black" stroke="black" points="257.86,-260.27 249.78,-253.41 251.82,-263.81 257.86,-260.27"/>
</g>
<!-- n13 -->
<g id="node14" class="node">
<title>n13</title>
<polygon fill="none" stroke="cornflowerblue" points="349,-252 295,-252 295,-216 349,-216 349,-252"/>
<text xml:space="preserve" text-anchor="middle" x="322" y="-230.07" font-family="Iosevka Term SS09" font-size="14.00" fill="blue">true</text>
</g>
<!-- n1&#45;&gt;n13 -->
<g id="edge13" class="edge">
<title>n1&#45;&gt;n13</title>
<path fill="none" stroke="black" d="M290.38,-287.7C295.06,-279.9 300.69,-270.51 305.9,-261.83"/>
<polygon fill="black" stroke="black" points="308.81,-263.78 310.96,-253.4 302.81,-260.18 308.81,-263.78"/>
</g>
<!-- n3 -->
<g id="node4" class="node">
<title>n3</title>
<polygon fill="none" stroke="cornflowerblue" points="228.38,-180 151.62,-180 151.62,-144 228.38,-144 228.38,-180"/>
<text xml:space="preserve" text-anchor="middle" x="190" y="-158.07" font-family="Iosevka Term SS09" font-size="14.00" fill="blue">binary or</text>
</g>
<!-- n2&#45;&gt;n3 -->
<g id="edge3" class="edge">
<title>n2&#45;&gt;n3</title>
<path fill="none" stroke="black" d="M226.89,-215.7C221.31,-207.73 214.57,-198.1 208.38,-189.26"/>
<polygon fill="black" stroke="black" points="211.44,-187.53 202.84,-181.34 205.71,-191.54 211.44,-187.53"/>
</g>
<!-- n10 -->
<g id="node11" class="node">
<title>n10</title>
<polygon fill="none" stroke="cornflowerblue" points="329.75,-180 246.25,-180 246.25,-144 329.75,-144 329.75,-180"/>
<text xml:space="preserve" text-anchor="middle" x="288" y="-158.07" font-family="Iosevka Term SS09" font-size="14.00" fill="blue">binary and</text>
</g>
<!-- n2&#45;&gt;n10 -->
<g id="edge10" class="edge">
<title>n2&#45;&gt;n10</title>
<path fill="none" stroke="black" d="M251.11,-215.7C256.69,-207.73 263.43,-198.1 269.62,-189.26"/>
<polygon fill="black" stroke="black" points="272.29,-191.54 275.16,-181.34 266.56,-187.53 272.29,-191.54"/>
</g>
<!-- n4 -->
<g id="node5" class="node">
<title>n4</title>
<polygon fill="none" stroke="cornflowerblue" points="132.75,-108 49.25,-108 49.25,-72 132.75,-72 132.75,-108"/>
<text xml:space="preserve" text-anchor="middle" x="91" y="-86.08" font-family="Iosevka Term SS09" font-size="14.00" fill="blue">binary and</text>
</g>
<!-- n3&#45;&gt;n4 -->
<g id="edge4" class="edge">
<title>n3&#45;&gt;n4</title>
<path fill="none" stroke="black" d="M165.27,-143.52C153.01,-134.85 138.02,-124.25 124.73,-114.85"/>
<polygon fill="black" stroke="black" points="126.83,-112.05 116.65,-109.13 122.79,-117.77 126.83,-112.05"/>
</g>
<!-- n7 -->
<g id="node8" class="node">
<title>n7</title>
<polygon fill="none" stroke="cornflowerblue" points="234.75,-108 151.25,-108 151.25,-72 234.75,-72 234.75,-108"/>
<text xml:space="preserve" text-anchor="middle" x="193" y="-86.08" font-family="Iosevka Term SS09" font-size="14.00" fill="blue">binary and</text>
</g>
<!-- n3&#45;&gt;n7 -->
<g id="edge7" class="edge">
<title>n3&#45;&gt;n7</title>
<path fill="none" stroke="black" d="M190.74,-143.7C191.05,-136.41 191.43,-127.73 191.78,-119.54"/>
<polygon fill="black" stroke="black" points="195.27,-119.76 192.2,-109.62 188.28,-119.46 195.27,-119.76"/>
</g>
<!-- n5 -->
<g id="node6" class="node">
<title>n5</title>
<polygon fill="none" stroke="cornflowerblue" points="54,-36 0,-36 0,0 54,0 54,-36"/>
<text xml:space="preserve" text-anchor="middle" x="27" y="-14.07" font-family="Iosevka Term SS09" font-size="14.00" fill="blue">true</text>
</g>
<!-- n4&#45;&gt;n5 -->
<g id="edge5" class="edge">
<title>n4&#45;&gt;n5</title>
<path fill="none" stroke="black" d="M75.18,-71.7C67.66,-63.47 58.53,-53.48 50.24,-44.42"/>
<polygon fill="black" stroke="black" points="52.99,-42.24 43.66,-37.22 47.82,-46.96 52.99,-42.24"/>
</g>
<!-- n6 -->
<g id="node7" class="node">
<title>n6</title>
<polygon fill="none" stroke="cornflowerblue" points="126,-36 72,-36 72,0 126,0 126,-36"/>
<text xml:space="preserve" text-anchor="middle" x="99" y="-14.07" font-family="Iosevka Term SS09" font-size="14.00" fill="blue">false</text>
</g>
<!-- n4&#45;&gt;n6 -->
<g id="edge6" class="edge">
<title>n4&#45;&gt;n6</title>
<path fill="none" stroke="black" d="M92.98,-71.7C93.81,-64.41 94.8,-55.73 95.74,-47.54"/>
<polygon fill="black" stroke="black" points="99.22,-47.94 96.87,-37.61 92.26,-47.15 99.22,-47.94"/>
</g>
<!-- n8 -->
<g id="node9" class="node">
<title>n8</title>
<polygon fill="none" stroke="cornflowerblue" points="213,-36 159,-36 159,0 213,0 213,-36"/>
<text xml:space="preserve" text-anchor="middle" x="186" y="-14.07" font-family="Iosevka Term SS09" font-size="14.00" fill="blue">false</text>
</g>
<!-- n7&#45;&gt;n8 -->
<g id="edge8" class="edge">
<title>n7&#45;&gt;n8</title>
<path fill="none" stroke="black" d="M191.27,-71.7C190.54,-64.41 189.67,-55.73 188.85,-47.54"/>
<polygon fill="black" stroke="black" points="192.34,-47.21 187.86,-37.61 185.37,-47.91 192.34,-47.21"/>
</g>
<!-- n9 -->
<g id="node10" class="node">
<title>n9</title>
<polygon fill="none" stroke="cornflowerblue" points="285,-36 231,-36 231,0 285,0 285,-36"/>
<text xml:space="preserve" text-anchor="middle" x="258" y="-14.07" font-family="Iosevka Term SS09" font-size="14.00" fill="blue">true</text>
</g>
<!-- n7&#45;&gt;n9 -->
<g id="edge9" class="edge">
<title>n7&#45;&gt;n9</title>
<path fill="none" stroke="black" d="M209.07,-71.7C216.7,-63.47 225.98,-53.48 234.4,-44.42"/>
<polygon fill="black" stroke="black" points="236.85,-46.92 241.09,-37.21 231.72,-42.16 236.85,-46.92"/>
</g>
<!-- n11 -->
<g id="node12" class="node">
<title>n11</title>
<polygon fill="none" stroke="cornflowerblue" points="312,-108 258,-108 258,-72 312,-72 312,-108"/>
<text xml:space="preserve" text-anchor="middle" x="285" y="-86.08" font-family="Iosevka Term SS09" font-size="14.00" fill="blue">false</text>
</g>
<!-- n10&#45;&gt;n11 -->
<g id="edge11" class="edge">
<title>n10&#45;&gt;n11</title>
<path fill="none" stroke="black" d="M287.26,-143.7C286.95,-136.41 286.57,-127.73 286.22,-119.54"/>
<polygon fill="black" stroke="black" points="289.72,-119.46 285.8,-109.62 282.73,-119.76 289.72,-119.46"/>
</g>
<!-- n12 -->
<g id="node13" class="node">
<title>n12</title>
<polygon fill="none" stroke="cornflowerblue" points="384,-108 330,-108 330,-72 384,-72 384,-108"/>
<text xml:space="preserve" text-anchor="middle" x="357" y="-86.08" font-family="Iosevka Term SS09" font-size="14.00" fill="blue">false</text>
</g>
<!-- n10&#45;&gt;n12 -->
<g id="edge12" class="edge">
<title>n10&#45;&gt;n12</title>
<path fill="none" stroke="black" d="M305.06,-143.7C313.24,-135.39 323.21,-125.28 332.22,-116.14"/>
<polygon fill="black" stroke="black" points="334.55,-118.76 339.08,-109.18 329.56,-113.85 334.55,-118.76"/>
</g>
</g>
</svg>
