<?xml version="1.0" encoding="UTF-8" standalone="no"?>
<!DOCTYPE svg PUBLIC "-//W3C//DTD SVG 1.1//EN"
 "http://www.w3.org/Graphics/SVG/1.1/DTD/svg11.dtd">
<!-- Generated by graphviz version 14.1.2 (0)
 -->
<!-- Title: ParseTree Pages: 1 -->
<svg width="615pt" height="620pt"
 viewBox="0.00 0.00 615.00 620.00" xmlns="http://www.w3.org/2000/svg" xmlns:xlink="http://www.w3.org/1999/xlink">
<g id="graph0" class="graph" transform="scale(1 1) rotate(0) translate(4 616)">
<title>ParseTree</title>
<polygon fill="white" stroke="none" points="-4,4 -4,-616 610.95,-616 610.95,4 -4,4"/>
<!-- n0 -->
<g id="node1" class="node">
<title>n0</title>
<polygon fill="none" stroke="blue" points="552.12,-612 478.38,-612 478.38,-576 552.12,-576 552.12,-612"/>
<text xml:space="preserve" text-anchor="middle" x="515.25" y="-588.95" font-family="Courier New" font-size="14.00" fill="blue">program</text>
</g>
<!-- n1 -->
<g id="node2" class="node">
<title>n1</title>
<polygon fill="none" stroke="blue" points="513.25,-540 431.25,-540 431.25,-504 513.25,-504 513.25,-540"/>
<text xml:space="preserve" text-anchor="middle" x="472.25" y="-516.95" font-family="Courier New" font-size="14.00" fill="blue">codeItem</text>
</g>
<!-- n0&#45;&gt;n1 -->
<g id="edge1" class="edge">
<title>n0&#45;&gt;n1</title>
<path fill="none" stroke="black" d="M504.62,-575.7C499.83,-567.9 494.06,-558.51 488.73,-549.83"/>
<polygon fill="black" stroke="black" points="491.77,-548.08 483.55,-541.39 485.8,-551.75 491.77,-548.08"/>
</g>
<!-- n19 -->
<g id="node20" class="node">
<title>n19</title>
<ellipse fill="none" stroke="green" cx="559.25" cy="-522" rx="27.81" ry="18"/>
<text xml:space="preserve" text-anchor="middle" x="559.25" y="-516.95" font-family="Courier New" font-size="14.00" fill="darkgreen">EOF</text>
</g>
<!-- n0&#45;&gt;n19 -->
<g id="edge19" class="edge">
<title>n0&#45;&gt;n19</title>
<path fill="none" stroke="black" d="M526.13,-575.7C531.23,-567.58 537.42,-557.74 543.06,-548.76"/>
<polygon fill="black" stroke="black" points="545.94,-550.75 548.3,-540.43 540.01,-547.03 545.94,-550.75"/>
</g>
<!-- n2 -->
<g id="node3" class="node">
<title>n2</title>
<polygon fill="none" stroke="blue" points="521.5,-468 423,-468 423,-432 521.5,-432 521.5,-468"/>
<text xml:space="preserve" text-anchor="middle" x="472.25" y="-444.95" font-family="Courier New" font-size="14.00" fill="blue">expression</text>
</g>
<!-- n1&#45;&gt;n2 -->
<g id="edge2" class="edge">
<title>n1&#45;&gt;n2</title>
<path fill="none" stroke="black" d="M472.25,-503.7C472.25,-496.41 472.25,-487.73 472.25,-479.54"/>
<polygon fill="black" stroke="black" points="475.75,-479.62 472.25,-469.62 468.75,-479.62 475.75,-479.62"/>
</g>
<!-- n3 -->
<g id="node4" class="node">
<title>n3</title>
<polygon fill="none" stroke="blue" points="427.5,-396 329,-396 329,-360 427.5,-360 427.5,-396"/>
<text xml:space="preserve" text-anchor="middle" x="378.25" y="-372.95" font-family="Courier New" font-size="14.00" fill="blue">expression</text>
</g>
<!-- n2&#45;&gt;n3 -->
<g id="edge3" class="edge">
<title>n2&#45;&gt;n3</title>
<path fill="none" stroke="black" d="M449.01,-431.7C437.38,-423.03 423.1,-412.4 410.43,-402.96"/>
<polygon fill="black" stroke="black" points="412.87,-400.42 402.76,-397.25 408.69,-406.03 412.87,-400.42"/>
</g>
<!-- n17 -->
<g id="node18" class="node">
<title>n17</title>
<ellipse fill="none" stroke="green" cx="472.25" cy="-378" rx="27" ry="18"/>
<text xml:space="preserve" text-anchor="middle" x="472.25" y="-372.95" font-family="Courier New" font-size="14.00" fill="darkgreen">.</text>
</g>
<!-- n2&#45;&gt;n17 -->
<g id="edge17" class="edge">
<title>n2&#45;&gt;n17</title>
<path fill="none" stroke="black" d="M472.25,-431.7C472.25,-424.41 472.25,-415.73 472.25,-407.54"/>
<polygon fill="black" stroke="black" points="475.75,-407.62 472.25,-397.62 468.75,-407.62 475.75,-407.62"/>
</g>
<!-- n18 -->
<g id="node19" class="node">
<title>n18</title>
<ellipse fill="none" stroke="green" cx="562.25" cy="-378" rx="44.7" ry="18"/>
<text xml:space="preserve" text-anchor="middle" x="562.25" y="-372.95" font-family="Courier New" font-size="14.00" fill="darkgreen">length</text>
</g>
<!-- n2&#45;&gt;n18 -->
<g id="edge18" class="edge">
<title>n2&#45;&gt;n18</title>
<path fill="none" stroke="black" d="M494.5,-431.7C506.31,-422.51 520.96,-411.11 533.61,-401.27"/>
<polygon fill="black" stroke="black" points="535.46,-404.27 541.21,-395.37 531.17,-398.74 535.46,-404.27"/>
</g>
<!-- n4 -->
<g id="node5" class="node">
<title>n4</title>
<polygon fill="none" stroke="blue" points="333.5,-324 235,-324 235,-288 333.5,-288 333.5,-324"/>
<text xml:space="preserve" text-anchor="middle" x="284.25" y="-300.95" font-family="Courier New" font-size="14.00" fill="blue">expression</text>
</g>
<!-- n3&#45;&gt;n4 -->
<g id="edge4" class="edge">
<title>n3&#45;&gt;n4</title>
<path fill="none" stroke="black" d="M355.01,-359.7C343.38,-351.03 329.1,-340.4 316.43,-330.96"/>
<polygon fill="black" stroke="black" points="318.87,-328.42 308.76,-325.25 314.69,-334.03 318.87,-328.42"/>
</g>
<!-- n15 -->
<g id="node16" class="node">
<title>n15</title>
<ellipse fill="none" stroke="green" cx="378.25" cy="-306" rx="27" ry="18"/>
<text xml:space="preserve" text-anchor="middle" x="378.25" y="-300.95" font-family="Courier New" font-size="14.00" fill="darkgreen">(</text>
</g>
<!-- n3&#45;&gt;n15 -->
<g id="edge15" class="edge">
<title>n3&#45;&gt;n15</title>
<path fill="none" stroke="black" d="M378.25,-359.7C378.25,-352.41 378.25,-343.73 378.25,-335.54"/>
<polygon fill="black" stroke="black" points="381.75,-335.62 378.25,-325.62 374.75,-335.62 381.75,-335.62"/>
</g>
<!-- n16 -->
<g id="node17" class="node">
<title>n16</title>
<ellipse fill="none" stroke="green" cx="450.25" cy="-306" rx="27" ry="18"/>
<text xml:space="preserve" text-anchor="middle" x="450.25" y="-300.95" font-family="Courier New" font-size="14.00" fill="darkgreen">)</text>
</g>
<!-- n3&#45;&gt;n16 -->
<g id="edge16" class="edge">
<title>n3&#45;&gt;n16</title>
<path fill="none" stroke="black" d="M396.05,-359.7C405.55,-350.46 417.34,-338.99 427.5,-329.12"/>
<polygon fill="black" stroke="black" points="429.75,-331.81 434.48,-322.33 424.87,-326.8 429.75,-331.81"/>
</g>
<!-- n5 -->
<g id="node6" class="node">
<title>n5</title>
<polygon fill="none" stroke="blue" points="239.5,-252 141,-252 141,-216 239.5,-216 239.5,-252"/>
<text xml:space="preserve" text-anchor="middle" x="190.25" y="-228.95" font-family="Courier New" font-size="14.00" fill="blue">expression</text>
</g>
<!-- n4&#45;&gt;n5 -->
<g id="edge5" class="edge">
<title>n4&#45;&gt;n5</title>
<path fill="none" stroke="black" d="M261.01,-287.7C249.38,-279.03 235.1,-268.4 222.43,-258.96"/>
<polygon fill="black" stroke="black" points="224.87,-256.42 214.76,-253.25 220.69,-262.03 224.87,-256.42"/>
</g>
<!-- n13 -->
<g id="node14" class="node">
<title>n13</title>
<ellipse fill="none" stroke="green" cx="284.25" cy="-234" rx="27" ry="18"/>
<text xml:space="preserve" text-anchor="middle" x="284.25" y="-228.95" font-family="Courier New" font-size="14.00" fill="darkgreen">.</text>
</g>
<!-- n4&#45;&gt;n13 -->
<g id="edge13" class="edge">
<title>n4&#45;&gt;n13</title>
<path fill="none" stroke="black" d="M284.25,-287.7C284.25,-280.41 284.25,-271.73 284.25,-263.54"/>
<polygon fill="black" stroke="black" points="287.75,-263.62 284.25,-253.62 280.75,-263.62 287.75,-263.62"/>
</g>
<!-- n14 -->
<g id="node15" class="node">
<title>n14</title>
<ellipse fill="none" stroke="green" cx="385.25" cy="-234" rx="55.96" ry="18"/>
<text xml:space="preserve" text-anchor="middle" x="385.25" y="-228.95" font-family="Courier New" font-size="14.00" fill="darkgreen">toString</text>
</g>
<!-- n4&#45;&gt;n14 -->
<g id="edge14" class="edge">
<title>n4&#45;&gt;n14</title>
<path fill="none" stroke="black" d="M309.48,-287.52C322.67,-278.37 338.97,-267.07 353.07,-257.3"/>
<polygon fill="black" stroke="black" points="354.94,-260.26 361.17,-251.69 350.96,-254.51 354.94,-260.26"/>
</g>
<!-- n6 -->
<g id="node7" class="node">
<title>n6</title>
<polygon fill="none" stroke="blue" points="98.5,-180 0,-180 0,-144 98.5,-144 98.5,-180"/>
<text xml:space="preserve" text-anchor="middle" x="49.25" y="-156.95" font-family="Courier New" font-size="14.00" fill="blue">expression</text>
</g>
<!-- n5&#45;&gt;n6 -->
<g id="edge6" class="edge">
<title>n5&#45;&gt;n6</title>
<path fill="none" stroke="black" d="M155.03,-215.52C136.64,-206.39 113.93,-195.11 94.28,-185.35"/>
<polygon fill="black" stroke="black" points="95.89,-182.25 85.37,-180.93 92.77,-188.52 95.89,-182.25"/>
</g>
<!-- n8 -->
<g id="node9" class="node">
<title>n8</title>
<ellipse fill="none" stroke="green" cx="143.25" cy="-162" rx="27" ry="18"/>
<text xml:space="preserve" text-anchor="middle" x="143.25" y="-156.95" font-family="Courier New" font-size="14.00" fill="darkgreen">[</text>
</g>
<!-- n5&#45;&gt;n8 -->
<g id="edge8" class="edge">
<title>n5&#45;&gt;n8</title>
<path fill="none" stroke="black" d="M178.63,-215.7C173.04,-207.37 166.24,-197.23 160.09,-188.08"/>
<polygon fill="black" stroke="black" points="163.1,-186.28 154.62,-179.93 157.28,-190.18 163.1,-186.28"/>
</g>
<!-- n9 -->
<g id="node10" class="node">
<title>n9</title>
<polygon fill="none" stroke="blue" points="286.5,-180 188,-180 188,-144 286.5,-144 286.5,-180"/>
<text xml:space="preserve" text-anchor="middle" x="237.25" y="-156.95" font-family="Courier New" font-size="14.00" fill="blue">expression</text>
</g>
<!-- n5&#45;&gt;n9 -->
<g id="edge9" class="edge">
<title>n5&#45;&gt;n9</title>
<path fill="none" stroke="black" d="M201.87,-215.7C207.16,-207.81 213.55,-198.3 219.43,-189.55"/>
<polygon fill="black" stroke="black" points="222.25,-191.61 224.92,-181.36 216.44,-187.71 222.25,-191.61"/>
</g>
<!-- n12 -->
<g id="node13" class="node">
<title>n12</title>
<ellipse fill="none" stroke="green" cx="331.25" cy="-162" rx="27" ry="18"/>
<text xml:space="preserve" text-anchor="middle" x="331.25" y="-156.95" font-family="Courier New" font-size="14.00" fill="darkgreen">]</text>
</g>
<!-- n5&#45;&gt;n12 -->
<g id="edge12" class="edge">
<title>n5&#45;&gt;n12</title>
<path fill="none" stroke="black" d="M225.47,-215.52C248.32,-204.17 277.83,-189.52 299.88,-178.57"/>
<polygon fill="black" stroke="black" points="301.28,-181.78 308.68,-174.2 298.17,-175.51 301.28,-181.78"/>
</g>
<!-- n7 -->
<g id="node8" class="node">
<title>n7</title>
<ellipse fill="none" stroke="green" cx="49.25" cy="-90" rx="27" ry="18"/>
<text xml:space="preserve" text-anchor="middle" x="49.25" y="-84.95" font-family="Courier New" font-size="14.00" fill="darkgreen">a</text>
</g>
<!-- n6&#45;&gt;n7 -->
<g id="edge7" class="edge">
<title>n6&#45;&gt;n7</title>
<path fill="none" stroke="black" d="M49.25,-143.7C49.25,-136.41 49.25,-127.73 49.25,-119.54"/>
<polygon fill="black" stroke="black" points="52.75,-119.62 49.25,-109.62 45.75,-119.62 52.75,-119.62"/>
</g>
<!-- n10 -->
<g id="node11" class="node">
<title>n10</title>
<polygon fill="none" stroke="blue" points="294.75,-108 179.75,-108 179.75,-72 294.75,-72 294.75,-108"/>
<text xml:space="preserve" text-anchor="middle" x="237.25" y="-84.95" font-family="Courier New" font-size="14.00" fill="blue">constantExpr</text>
</g>
<!-- n9&#45;&gt;n10 -->
<g id="edge10" class="edge">
<title>n9&#45;&gt;n10</title>
<path fill="none" stroke="black" d="M237.25,-143.7C237.25,-136.41 237.25,-127.73 237.25,-119.54"/>
<polygon fill="black" stroke="black" points="240.75,-119.62 237.25,-109.62 233.75,-119.62 240.75,-119.62"/>
</g>
<!-- n11 -->
<g id="node12" class="node">
<title>n11</title>
<ellipse fill="none" stroke="green" cx="237.25" cy="-18" rx="27" ry="18"/>
<text xml:space="preserve" text-anchor="middle" x="237.25" y="-12.95" font-family="Courier New" font-size="14.00" fill="darkgreen">3</text>
</g>
<!-- n10&#45;&gt;n11 -->
<g id="edge11" class="edge">
<title>n10&#45;&gt;n11</title>
<path fill="none" stroke="black" d="M237.25,-71.7C237.25,-64.41 237.25,-55.73 237.25,-47.54"/>
<polygon fill="black" stroke="black" points="240.75,-47.62 237.25,-37.62 233.75,-47.62 240.75,-47.62"/>
</g>
</g>
</svg>
